<svg width="1247" height="395" viewBox="0 0 1247 395" fill="none" xmlns="http://www.w3.org/2000/svg">
<rect width="1247" height="395" fill="white"/>
<rect x="420.5" y="58.5" width="199" height="55" rx="23.5" stroke="black"/>
<rect x="420.5" y="152.5" width="199" height="55" rx="23.5" stroke="black"/>
<rect x="38.5" y="281.5" width="179" height="55" rx="23.5" stroke="black"/>
<rect x="234.5" y="281.5" width="179" height="55" rx="23.5" stroke="black"/>
<rect x="430.5" y="281.5" width="179" height="55" rx="23.5" stroke="black"/>
<rect x="626.5" y="281.5" width="179" height="55" rx="23.5" stroke="black"/>
<rect x="822.5" y="281.5" width="179" height="55" rx="23.5" stroke="black"/>
<path d="M479.648 77.5455V79.4205H471.227V95H469.114V77.5455H479.648ZM481.487 95V93.125H481.964C482.356 93.125 482.683 93.0483 482.944 92.8949C483.205 92.7358 483.415 92.4602 483.575 92.0682C483.739 91.6705 483.864 91.1193 483.95 90.4148C484.04 89.7045 484.106 88.8011 484.146 87.7045L484.384 81.9091H493.112V95H491.1V83.7841H486.293L486.089 88.4545C486.043 89.5284 485.947 90.4744 485.799 91.2926C485.657 92.1051 485.438 92.7869 485.143 93.3381C484.853 93.8892 484.467 94.304 483.984 94.5824C483.501 94.8608 482.896 95 482.168 95H481.487ZM500.654 95.3068C499.825 95.3068 499.072 95.1506 498.396 94.8381C497.719 94.5199 497.183 94.0625 496.785 93.4659C496.387 92.8636 496.188 92.1364 496.188 91.2841C496.188 90.5341 496.336 89.9261 496.631 89.4602C496.927 88.9886 497.322 88.6193 497.816 88.3523C498.31 88.0852 498.856 87.8864 499.452 87.7557C500.055 87.6193 500.66 87.5114 501.268 87.4318C502.063 87.3295 502.708 87.2528 503.202 87.2017C503.702 87.1449 504.066 87.0511 504.293 86.9205C504.526 86.7898 504.643 86.5625 504.643 86.2386V86.1705C504.643 85.3295 504.413 84.6761 503.952 84.2102C503.498 83.7443 502.808 83.5114 501.881 83.5114C500.921 83.5114 500.168 83.7216 499.623 84.142C499.077 84.5625 498.694 85.0114 498.472 85.4886L496.563 84.8068C496.904 84.0114 497.359 83.392 497.927 82.9489C498.501 82.5 499.126 82.1875 499.802 82.0114C500.484 81.8295 501.154 81.7386 501.813 81.7386C502.234 81.7386 502.717 81.7898 503.262 81.892C503.813 81.9886 504.344 82.1903 504.856 82.4972C505.373 82.804 505.802 83.267 506.143 83.8864C506.484 84.5057 506.654 85.3352 506.654 86.375V95H504.643V93.2273H504.54C504.404 93.5114 504.177 93.8153 503.859 94.1392C503.54 94.4631 503.117 94.7386 502.589 94.9659C502.06 95.1932 501.415 95.3068 500.654 95.3068ZM500.961 93.5C501.756 93.5 502.427 93.3438 502.972 93.0312C503.523 92.7188 503.938 92.3153 504.217 91.821C504.501 91.3267 504.643 90.8068 504.643 90.2614V88.4205C504.558 88.5227 504.37 88.6165 504.08 88.7017C503.796 88.7812 503.467 88.8523 503.092 88.9148C502.722 88.9716 502.362 89.0227 502.009 89.0682C501.663 89.108 501.381 89.142 501.165 89.1705C500.643 89.2386 500.154 89.3494 499.7 89.5028C499.251 89.6506 498.887 89.875 498.609 90.1761C498.336 90.4716 498.2 90.875 498.2 91.3864C498.2 92.0852 498.458 92.6136 498.975 92.9716C499.498 93.3239 500.16 93.5 500.961 93.5ZM510.325 95V81.9091H515.678C517.087 81.9091 518.206 82.2273 519.036 82.8636C519.865 83.5 520.28 84.3409 520.28 85.3864C520.28 86.1818 520.044 86.7983 519.572 87.2358C519.101 87.6676 518.496 87.9602 517.757 88.1136C518.24 88.1818 518.709 88.3523 519.163 88.625C519.624 88.8977 520.004 89.2727 520.305 89.75C520.607 90.2216 520.757 90.8011 520.757 91.4886C520.757 92.1591 520.587 92.7585 520.246 93.2869C519.905 93.8153 519.416 94.233 518.78 94.5398C518.143 94.8466 517.382 95 516.496 95H510.325ZM512.234 93.1591H516.496C517.189 93.1591 517.732 92.9943 518.124 92.6648C518.516 92.3352 518.712 91.8864 518.712 91.3182C518.712 90.642 518.516 90.1108 518.124 89.7244C517.732 89.3324 517.189 89.1364 516.496 89.1364H512.234V93.1591ZM512.234 87.3977H515.678C516.217 87.3977 516.68 87.3239 517.067 87.1761C517.453 87.0227 517.749 86.8068 517.953 86.5284C518.163 86.2443 518.268 85.9091 518.268 85.5227C518.268 84.9716 518.038 84.5398 517.578 84.2273C517.118 83.9091 516.484 83.75 515.678 83.75H512.234V87.3977ZM532.563 87.5341V89.4091H525.336V87.5341H532.563ZM525.813 81.9091V95H523.802V81.9091H525.813ZM534.097 81.9091V95H532.086V81.9091H534.097ZM541.623 95.3068C540.793 95.3068 540.04 95.1506 539.364 94.8381C538.688 94.5199 538.151 94.0625 537.754 93.4659C537.356 92.8636 537.157 92.1364 537.157 91.2841C537.157 90.5341 537.305 89.9261 537.6 89.4602C537.896 88.9886 538.29 88.6193 538.785 88.3523C539.279 88.0852 539.825 87.8864 540.421 87.7557C541.023 87.6193 541.629 87.5114 542.237 87.4318C543.032 87.3295 543.677 87.2528 544.171 87.2017C544.671 87.1449 545.035 87.0511 545.262 86.9205C545.495 86.7898 545.612 86.5625 545.612 86.2386V86.1705C545.612 85.3295 545.381 84.6761 544.921 84.2102C544.467 83.7443 543.776 83.5114 542.85 83.5114C541.89 83.5114 541.137 83.7216 540.592 84.142C540.046 84.5625 539.663 85.0114 539.441 85.4886L537.532 84.8068C537.873 84.0114 538.327 83.392 538.896 82.9489C539.469 82.5 540.094 82.1875 540.771 82.0114C541.452 81.8295 542.123 81.7386 542.782 81.7386C543.202 81.7386 543.685 81.7898 544.231 81.892C544.782 81.9886 545.313 82.1903 545.825 82.4972C546.342 82.804 546.771 83.267 547.112 83.8864C547.452 84.5057 547.623 85.3352 547.623 86.375V95H545.612V93.2273H545.509C545.373 93.5114 545.146 93.8153 544.827 94.1392C544.509 94.4631 544.086 94.7386 543.558 94.9659C543.029 95.1932 542.384 95.3068 541.623 95.3068ZM541.93 93.5C542.725 93.5 543.396 93.3438 543.941 93.0312C544.492 92.7188 544.907 92.3153 545.185 91.821C545.469 91.3267 545.612 90.8068 545.612 90.2614V88.4205C545.526 88.5227 545.339 88.6165 545.049 88.7017C544.765 88.7812 544.435 88.8523 544.06 88.9148C543.691 88.9716 543.33 89.0227 542.978 89.0682C542.631 89.108 542.35 89.142 542.134 89.1705C541.612 89.2386 541.123 89.3494 540.668 89.5028C540.219 89.6506 539.856 89.875 539.577 90.1761C539.305 90.4716 539.168 90.875 539.168 91.3864C539.168 92.0852 539.427 92.6136 539.944 92.9716C540.467 93.3239 541.129 93.5 541.93 93.5ZM559.169 95V83.75H555.692C554.908 83.75 554.291 83.9318 553.842 84.2955C553.393 84.6591 553.169 85.1591 553.169 85.7955C553.169 86.4205 553.371 86.9119 553.774 87.2699C554.183 87.6278 554.743 87.8068 555.453 87.8068H559.68V89.6818H555.453C554.567 89.6818 553.803 89.5256 553.161 89.2131C552.518 88.9006 552.024 88.4545 551.678 87.875C551.331 87.2898 551.158 86.5966 551.158 85.7955C551.158 84.9886 551.339 84.2955 551.703 83.7159C552.067 83.1364 552.587 82.6903 553.263 82.3778C553.945 82.0653 554.754 81.9091 555.692 81.9091H561.078V95H559.169ZM550.442 95L554.158 88.4886H556.339L552.624 95H550.442Z" fill="black"/>
<path d="M468.17 171.545V189H466.057V173.42H457.261V189H455.148V171.545H468.17ZM477.479 189.273C476.298 189.273 475.261 188.991 474.369 188.429C473.482 187.866 472.789 187.08 472.289 186.068C471.795 185.057 471.548 183.875 471.548 182.523C471.548 181.159 471.795 179.969 472.289 178.952C472.789 177.935 473.482 177.145 474.369 176.582C475.261 176.02 476.298 175.739 477.479 175.739C478.661 175.739 479.695 176.02 480.582 176.582C481.474 177.145 482.167 177.935 482.661 178.952C483.161 179.969 483.411 181.159 483.411 182.523C483.411 183.875 483.161 185.057 482.661 186.068C482.167 187.08 481.474 187.866 480.582 188.429C479.695 188.991 478.661 189.273 477.479 189.273ZM477.479 187.466C478.377 187.466 479.116 187.236 479.695 186.776C480.275 186.315 480.704 185.71 480.982 184.96C481.261 184.21 481.4 183.398 481.4 182.523C481.4 181.648 481.261 180.832 480.982 180.077C480.704 179.321 480.275 178.71 479.695 178.244C479.116 177.778 478.377 177.545 477.479 177.545C476.582 177.545 475.843 177.778 475.263 178.244C474.684 178.71 474.255 179.321 473.977 180.077C473.698 180.832 473.559 181.648 473.559 182.523C473.559 183.398 473.698 184.21 473.977 184.96C474.255 185.71 474.684 186.315 475.263 186.776C475.843 187.236 476.582 187.466 477.479 187.466ZM486.482 193.909V175.909H488.425V177.989H488.663C488.811 177.761 489.016 177.472 489.277 177.119C489.544 176.761 489.925 176.443 490.419 176.165C490.919 175.881 491.595 175.739 492.447 175.739C493.55 175.739 494.521 176.014 495.362 176.565C496.203 177.116 496.859 177.898 497.331 178.909C497.803 179.92 498.038 181.114 498.038 182.489C498.038 183.875 497.803 185.077 497.331 186.094C496.859 187.105 496.206 187.889 495.371 188.446C494.536 188.997 493.572 189.273 492.482 189.273C491.641 189.273 490.967 189.134 490.462 188.855C489.956 188.571 489.567 188.25 489.294 187.892C489.021 187.528 488.811 187.227 488.663 186.989H488.493V193.909H486.482ZM488.459 182.455C488.459 183.443 488.604 184.315 488.893 185.071C489.183 185.821 489.607 186.409 490.163 186.835C490.72 187.256 491.402 187.466 492.209 187.466C493.05 187.466 493.751 187.244 494.314 186.801C494.882 186.352 495.308 185.75 495.592 184.994C495.882 184.233 496.027 183.386 496.027 182.455C496.027 181.534 495.885 180.705 495.601 179.966C495.322 179.222 494.899 178.634 494.331 178.202C493.768 177.764 493.061 177.545 492.209 177.545C491.391 177.545 490.703 177.753 490.146 178.168C489.589 178.577 489.169 179.151 488.885 179.889C488.601 180.622 488.459 181.477 488.459 182.455ZM499.396 177.784V175.909H510.032V177.784H505.737V189H503.725V177.784H499.396ZM517.604 193.466V171.545H519.616V193.466H517.604ZM517.604 189.273C516.718 189.273 515.911 189.114 515.184 188.795C514.457 188.472 513.832 188.014 513.309 187.423C512.786 186.827 512.383 186.114 512.099 185.284C511.815 184.455 511.673 183.534 511.673 182.523C511.673 181.5 511.815 180.574 512.099 179.744C512.383 178.909 512.786 178.193 513.309 177.597C513.832 177 514.457 176.543 515.184 176.224C515.911 175.901 516.718 175.739 517.604 175.739H518.218V189.273H517.604ZM517.604 187.466H517.945V177.545H517.604C516.934 177.545 516.352 177.682 515.857 177.955C515.363 178.222 514.954 178.588 514.63 179.054C514.312 179.514 514.073 180.043 513.914 180.639C513.761 181.236 513.684 181.864 513.684 182.523C513.684 183.398 513.823 184.21 514.102 184.96C514.38 185.71 514.809 186.315 515.388 186.776C515.968 187.236 516.707 187.466 517.604 187.466ZM519.616 189.273H519.002V175.739H519.616C520.502 175.739 521.309 175.901 522.036 176.224C522.763 176.543 523.388 177 523.911 177.597C524.434 178.193 524.837 178.909 525.121 179.744C525.406 180.574 525.548 181.5 525.548 182.523C525.548 183.534 525.406 184.455 525.121 185.284C524.837 186.114 524.434 186.827 523.911 187.423C523.388 188.014 522.763 188.472 522.036 188.795C521.309 189.114 520.502 189.273 519.616 189.273ZM519.616 187.466C520.292 187.466 520.874 187.335 521.363 187.074C521.857 186.807 522.263 186.443 522.582 185.983C522.906 185.517 523.144 184.989 523.298 184.398C523.457 183.801 523.536 183.176 523.536 182.523C523.536 181.648 523.397 180.832 523.119 180.077C522.84 179.321 522.411 178.71 521.832 178.244C521.252 177.778 520.513 177.545 519.616 177.545H519.275V187.466H519.616ZM533.94 189.273C532.759 189.273 531.722 188.991 530.83 188.429C529.943 187.866 529.25 187.08 528.75 186.068C528.256 185.057 528.009 183.875 528.009 182.523C528.009 181.159 528.256 179.969 528.75 178.952C529.25 177.935 529.943 177.145 530.83 176.582C531.722 176.02 532.759 175.739 533.94 175.739C535.122 175.739 536.156 176.02 537.043 176.582C537.935 177.145 538.628 177.935 539.122 178.952C539.622 179.969 539.872 181.159 539.872 182.523C539.872 183.875 539.622 185.057 539.122 186.068C538.628 187.08 537.935 187.866 537.043 188.429C536.156 188.991 535.122 189.273 533.94 189.273ZM533.94 187.466C534.838 187.466 535.577 187.236 536.156 186.776C536.736 186.315 537.165 185.71 537.443 184.96C537.722 184.21 537.861 183.398 537.861 182.523C537.861 181.648 537.722 180.832 537.443 180.077C537.165 179.321 536.736 178.71 536.156 178.244C535.577 177.778 534.838 177.545 533.94 177.545C533.043 177.545 532.304 177.778 531.724 178.244C531.145 178.71 530.716 179.321 530.438 180.077C530.159 180.832 530.02 181.648 530.02 182.523C530.02 183.398 530.159 184.21 530.438 184.96C530.716 185.71 531.145 186.315 531.724 186.776C532.304 187.236 533.043 187.466 533.94 187.466ZM541.783 189V187.125H542.261C542.653 187.125 542.979 187.048 543.241 186.895C543.502 186.736 543.712 186.46 543.871 186.068C544.036 185.67 544.161 185.119 544.246 184.415C544.337 183.705 544.403 182.801 544.442 181.705L544.681 175.909H553.408V189H551.397V177.784H546.59L546.386 182.455C546.34 183.528 546.244 184.474 546.096 185.293C545.954 186.105 545.735 186.787 545.44 187.338C545.15 187.889 544.763 188.304 544.281 188.582C543.798 188.861 543.192 189 542.465 189H541.783ZM559.11 186.034L565.417 175.909H567.735V189H565.724V178.875L559.451 189H557.099V175.909H559.11V186.034ZM576.737 189.273C575.555 189.273 574.518 188.991 573.626 188.429C572.74 187.866 572.047 187.08 571.547 186.068C571.053 185.057 570.805 183.875 570.805 182.523C570.805 181.159 571.053 179.969 571.547 178.952C572.047 177.935 572.74 177.145 573.626 176.582C574.518 176.02 575.555 175.739 576.737 175.739C577.919 175.739 578.953 176.02 579.839 176.582C580.732 177.145 581.425 177.935 581.919 178.952C582.419 179.969 582.669 181.159 582.669 182.523C582.669 183.875 582.419 185.057 581.919 186.068C581.425 187.08 580.732 187.866 579.839 188.429C578.953 188.991 577.919 189.273 576.737 189.273ZM576.737 187.466C577.635 187.466 578.374 187.236 578.953 186.776C579.533 186.315 579.962 185.71 580.24 184.96C580.518 184.21 580.658 183.398 580.658 182.523C580.658 181.648 580.518 180.832 580.24 180.077C579.962 179.321 579.533 178.71 578.953 178.244C578.374 177.778 577.635 177.545 576.737 177.545C575.839 177.545 575.101 177.778 574.521 178.244C573.942 178.71 573.513 179.321 573.234 180.077C572.956 180.832 572.817 181.648 572.817 182.523C572.817 183.398 572.956 184.21 573.234 184.96C573.513 185.71 573.942 186.315 574.521 186.776C575.101 187.236 575.839 187.466 576.737 187.466Z" fill="black"/>
<path d="M91.1705 300.545V318H89.0568V302.42H80.2614V318H78.1477V300.545H91.1705ZM95.1612 322.909V304.909H97.1044V306.989H97.343C97.4908 306.761 97.6953 306.472 97.9567 306.119C98.2237 305.761 98.6044 305.443 99.0987 305.165C99.5987 304.881 100.275 304.739 101.127 304.739C102.229 304.739 103.201 305.014 104.042 305.565C104.883 306.116 105.539 306.898 106.011 307.909C106.482 308.92 106.718 310.114 106.718 311.489C106.718 312.875 106.482 314.077 106.011 315.094C105.539 316.105 104.886 316.889 104.05 317.446C103.215 317.997 102.252 318.273 101.161 318.273C100.32 318.273 99.647 318.134 99.1413 317.855C98.6357 317.571 98.2464 317.25 97.9737 316.892C97.701 316.528 97.4908 316.227 97.343 315.989H97.1726V322.909H95.1612ZM97.1385 311.455C97.1385 312.443 97.2834 313.315 97.5732 314.071C97.8629 314.821 98.2862 315.409 98.843 315.835C99.3999 316.256 100.082 316.466 100.888 316.466C101.729 316.466 102.431 316.244 102.994 315.801C103.562 315.352 103.988 314.75 104.272 313.994C104.562 313.233 104.707 312.386 104.707 311.455C104.707 310.534 104.565 309.705 104.281 308.966C104.002 308.222 103.579 307.634 103.011 307.202C102.448 306.764 101.741 306.545 100.888 306.545C100.07 306.545 99.3828 306.753 98.826 307.168C98.2692 307.577 97.8487 308.151 97.5646 308.889C97.2805 309.622 97.1385 310.477 97.1385 311.455ZM115.104 318.273C113.923 318.273 112.886 317.991 111.994 317.429C111.107 316.866 110.414 316.08 109.914 315.068C109.42 314.057 109.173 312.875 109.173 311.523C109.173 310.159 109.42 308.969 109.914 307.952C110.414 306.935 111.107 306.145 111.994 305.582C112.886 305.02 113.923 304.739 115.104 304.739C116.286 304.739 117.32 305.02 118.207 305.582C119.099 306.145 119.792 306.935 120.286 307.952C120.786 308.969 121.036 310.159 121.036 311.523C121.036 312.875 120.786 314.057 120.286 315.068C119.792 316.08 119.099 316.866 118.207 317.429C117.32 317.991 116.286 318.273 115.104 318.273ZM115.104 316.466C116.002 316.466 116.741 316.236 117.32 315.776C117.9 315.315 118.329 314.71 118.607 313.96C118.886 313.21 119.025 312.398 119.025 311.523C119.025 310.648 118.886 309.832 118.607 309.077C118.329 308.321 117.9 307.71 117.32 307.244C116.741 306.778 116.002 306.545 115.104 306.545C114.207 306.545 113.468 306.778 112.888 307.244C112.309 307.71 111.88 308.321 111.602 309.077C111.323 309.832 111.184 310.648 111.184 311.523C111.184 312.398 111.323 313.21 111.602 313.96C111.88 314.71 112.309 315.315 112.888 315.776C113.468 316.236 114.207 316.466 115.104 316.466ZM129.595 318.273C128.334 318.273 127.246 317.994 126.331 317.438C125.422 316.875 124.72 316.091 124.226 315.085C123.737 314.074 123.493 312.898 123.493 311.557C123.493 310.216 123.737 309.034 124.226 308.011C124.72 306.983 125.408 306.182 126.288 305.608C127.175 305.028 128.209 304.739 129.391 304.739C130.072 304.739 130.746 304.852 131.411 305.08C132.075 305.307 132.68 305.676 133.226 306.188C133.771 306.693 134.206 307.364 134.53 308.199C134.854 309.034 135.016 310.062 135.016 311.284V312.136H124.925V310.398H132.97C132.97 309.659 132.822 309 132.527 308.42C132.237 307.841 131.822 307.384 131.283 307.048C130.749 306.713 130.118 306.545 129.391 306.545C128.589 306.545 127.896 306.744 127.311 307.142C126.732 307.534 126.286 308.045 125.973 308.676C125.661 309.307 125.504 309.983 125.504 310.705V311.864C125.504 312.852 125.675 313.69 126.016 314.378C126.362 315.06 126.842 315.58 127.456 315.938C128.07 316.29 128.783 316.466 129.595 316.466C130.124 316.466 130.601 316.392 131.027 316.244C131.459 316.091 131.831 315.864 132.143 315.562C132.456 315.256 132.697 314.875 132.868 314.42L134.811 314.966C134.607 315.625 134.263 316.205 133.78 316.705C133.297 317.199 132.7 317.585 131.99 317.864C131.28 318.136 130.482 318.273 129.595 318.273ZM138.075 318V304.909H140.087V310.602H141.416L146.121 304.909H148.712L143.428 311.216L148.78 318H146.189L141.893 312.477H140.087V318H138.075ZM150.216 306.784V304.909H160.852V306.784H156.557V318H154.545V306.784H150.216ZM176.638 300.545V318H174.525V302.761H174.423L170.161 305.591V303.443L174.525 300.545H176.638Z" fill="black"/>
<path d="M285.17 300.545V318H283.057V302.42H274.261V318H272.148V300.545H285.17ZM289.161 322.909V304.909H291.104V306.989H291.343C291.491 306.761 291.695 306.472 291.957 306.119C292.224 305.761 292.604 305.443 293.099 305.165C293.599 304.881 294.275 304.739 295.127 304.739C296.229 304.739 297.201 305.014 298.042 305.565C298.883 306.116 299.539 306.898 300.011 307.909C300.482 308.92 300.718 310.114 300.718 311.489C300.718 312.875 300.482 314.077 300.011 315.094C299.539 316.105 298.886 316.889 298.05 317.446C297.215 317.997 296.252 318.273 295.161 318.273C294.32 318.273 293.647 318.134 293.141 317.855C292.636 317.571 292.246 317.25 291.974 316.892C291.701 316.528 291.491 316.227 291.343 315.989H291.173V322.909H289.161ZM291.138 311.455C291.138 312.443 291.283 313.315 291.573 314.071C291.863 314.821 292.286 315.409 292.843 315.835C293.4 316.256 294.082 316.466 294.888 316.466C295.729 316.466 296.431 316.244 296.994 315.801C297.562 315.352 297.988 314.75 298.272 313.994C298.562 313.233 298.707 312.386 298.707 311.455C298.707 310.534 298.565 309.705 298.281 308.966C298.002 308.222 297.579 307.634 297.011 307.202C296.448 306.764 295.741 306.545 294.888 306.545C294.07 306.545 293.383 306.753 292.826 307.168C292.269 307.577 291.849 308.151 291.565 308.889C291.281 309.622 291.138 310.477 291.138 311.455ZM309.104 318.273C307.923 318.273 306.886 317.991 305.994 317.429C305.107 316.866 304.414 316.08 303.914 315.068C303.42 314.057 303.173 312.875 303.173 311.523C303.173 310.159 303.42 308.969 303.914 307.952C304.414 306.935 305.107 306.145 305.994 305.582C306.886 305.02 307.923 304.739 309.104 304.739C310.286 304.739 311.32 305.02 312.207 305.582C313.099 306.145 313.792 306.935 314.286 307.952C314.786 308.969 315.036 310.159 315.036 311.523C315.036 312.875 314.786 314.057 314.286 315.068C313.792 316.08 313.099 316.866 312.207 317.429C311.32 317.991 310.286 318.273 309.104 318.273ZM309.104 316.466C310.002 316.466 310.741 316.236 311.32 315.776C311.9 315.315 312.329 314.71 312.607 313.96C312.886 313.21 313.025 312.398 313.025 311.523C313.025 310.648 312.886 309.832 312.607 309.077C312.329 308.321 311.9 307.71 311.32 307.244C310.741 306.778 310.002 306.545 309.104 306.545C308.207 306.545 307.468 306.778 306.888 307.244C306.309 307.71 305.88 308.321 305.602 309.077C305.323 309.832 305.184 310.648 305.184 311.523C305.184 312.398 305.323 313.21 305.602 313.96C305.88 314.71 306.309 315.315 306.888 315.776C307.468 316.236 308.207 316.466 309.104 316.466ZM323.595 318.273C322.334 318.273 321.246 317.994 320.331 317.438C319.422 316.875 318.72 316.091 318.226 315.085C317.737 314.074 317.493 312.898 317.493 311.557C317.493 310.216 317.737 309.034 318.226 308.011C318.72 306.983 319.408 306.182 320.288 305.608C321.175 305.028 322.209 304.739 323.391 304.739C324.072 304.739 324.746 304.852 325.411 305.08C326.075 305.307 326.68 305.676 327.226 306.188C327.771 306.693 328.206 307.364 328.53 308.199C328.854 309.034 329.016 310.062 329.016 311.284V312.136H318.925V310.398H326.97C326.97 309.659 326.822 309 326.527 308.42C326.237 307.841 325.822 307.384 325.283 307.048C324.749 306.713 324.118 306.545 323.391 306.545C322.589 306.545 321.896 306.744 321.311 307.142C320.732 307.534 320.286 308.045 319.973 308.676C319.661 309.307 319.504 309.983 319.504 310.705V311.864C319.504 312.852 319.675 313.69 320.016 314.378C320.362 315.06 320.842 315.58 321.456 315.938C322.07 316.29 322.783 316.466 323.595 316.466C324.124 316.466 324.601 316.392 325.027 316.244C325.459 316.091 325.831 315.864 326.143 315.562C326.456 315.256 326.697 314.875 326.868 314.42L328.811 314.966C328.607 315.625 328.263 316.205 327.78 316.705C327.297 317.199 326.7 317.585 325.99 317.864C325.28 318.136 324.482 318.273 323.595 318.273ZM332.075 318V304.909H334.087V310.602H335.416L340.121 304.909H342.712L337.428 311.216L342.78 318H340.189L335.893 312.477H334.087V318H332.075ZM344.216 306.784V304.909H354.852V306.784H350.557V318H348.545V306.784H344.216ZM364.502 318V316.466L370.263 310.159C370.94 309.42 371.496 308.778 371.934 308.233C372.371 307.682 372.695 307.165 372.906 306.682C373.121 306.193 373.229 305.682 373.229 305.148C373.229 304.534 373.082 304.003 372.786 303.554C372.496 303.105 372.099 302.759 371.593 302.514C371.087 302.27 370.519 302.148 369.888 302.148C369.218 302.148 368.633 302.287 368.133 302.565C367.638 302.838 367.255 303.222 366.982 303.716C366.715 304.21 366.582 304.79 366.582 305.455H364.57C364.57 304.432 364.806 303.534 365.278 302.761C365.749 301.989 366.391 301.386 367.204 300.955C368.022 300.523 368.94 300.307 369.957 300.307C370.979 300.307 371.886 300.523 372.675 300.955C373.465 301.386 374.085 301.969 374.533 302.702C374.982 303.435 375.207 304.25 375.207 305.148C375.207 305.79 375.09 306.418 374.857 307.031C374.63 307.639 374.232 308.318 373.664 309.068C373.102 309.812 372.32 310.722 371.32 311.795L367.4 315.989V316.125H375.513V318H364.502Z" fill="black"/>
<path d="M481.17 300.545V318H479.057V302.42H470.261V318H468.148V300.545H481.17ZM485.161 322.909V304.909H487.104V306.989H487.343C487.491 306.761 487.695 306.472 487.957 306.119C488.224 305.761 488.604 305.443 489.099 305.165C489.599 304.881 490.275 304.739 491.127 304.739C492.229 304.739 493.201 305.014 494.042 305.565C494.883 306.116 495.539 306.898 496.011 307.909C496.482 308.92 496.718 310.114 496.718 311.489C496.718 312.875 496.482 314.077 496.011 315.094C495.539 316.105 494.886 316.889 494.05 317.446C493.215 317.997 492.252 318.273 491.161 318.273C490.32 318.273 489.647 318.134 489.141 317.855C488.636 317.571 488.246 317.25 487.974 316.892C487.701 316.528 487.491 316.227 487.343 315.989H487.173V322.909H485.161ZM487.138 311.455C487.138 312.443 487.283 313.315 487.573 314.071C487.863 314.821 488.286 315.409 488.843 315.835C489.4 316.256 490.082 316.466 490.888 316.466C491.729 316.466 492.431 316.244 492.994 315.801C493.562 315.352 493.988 314.75 494.272 313.994C494.562 313.233 494.707 312.386 494.707 311.455C494.707 310.534 494.565 309.705 494.281 308.966C494.002 308.222 493.579 307.634 493.011 307.202C492.448 306.764 491.741 306.545 490.888 306.545C490.07 306.545 489.383 306.753 488.826 307.168C488.269 307.577 487.849 308.151 487.565 308.889C487.281 309.622 487.138 310.477 487.138 311.455ZM505.104 318.273C503.923 318.273 502.886 317.991 501.994 317.429C501.107 316.866 500.414 316.08 499.914 315.068C499.42 314.057 499.173 312.875 499.173 311.523C499.173 310.159 499.42 308.969 499.914 307.952C500.414 306.935 501.107 306.145 501.994 305.582C502.886 305.02 503.923 304.739 505.104 304.739C506.286 304.739 507.32 305.02 508.207 305.582C509.099 306.145 509.792 306.935 510.286 307.952C510.786 308.969 511.036 310.159 511.036 311.523C511.036 312.875 510.786 314.057 510.286 315.068C509.792 316.08 509.099 316.866 508.207 317.429C507.32 317.991 506.286 318.273 505.104 318.273ZM505.104 316.466C506.002 316.466 506.741 316.236 507.32 315.776C507.9 315.315 508.329 314.71 508.607 313.96C508.886 313.21 509.025 312.398 509.025 311.523C509.025 310.648 508.886 309.832 508.607 309.077C508.329 308.321 507.9 307.71 507.32 307.244C506.741 306.778 506.002 306.545 505.104 306.545C504.207 306.545 503.468 306.778 502.888 307.244C502.309 307.71 501.88 308.321 501.602 309.077C501.323 309.832 501.184 310.648 501.184 311.523C501.184 312.398 501.323 313.21 501.602 313.96C501.88 314.71 502.309 315.315 502.888 315.776C503.468 316.236 504.207 316.466 505.104 316.466ZM519.595 318.273C518.334 318.273 517.246 317.994 516.331 317.438C515.422 316.875 514.72 316.091 514.226 315.085C513.737 314.074 513.493 312.898 513.493 311.557C513.493 310.216 513.737 309.034 514.226 308.011C514.72 306.983 515.408 306.182 516.288 305.608C517.175 305.028 518.209 304.739 519.391 304.739C520.072 304.739 520.746 304.852 521.411 305.08C522.075 305.307 522.68 305.676 523.226 306.188C523.771 306.693 524.206 307.364 524.53 308.199C524.854 309.034 525.016 310.062 525.016 311.284V312.136H514.925V310.398H522.97C522.97 309.659 522.822 309 522.527 308.42C522.237 307.841 521.822 307.384 521.283 307.048C520.749 306.713 520.118 306.545 519.391 306.545C518.589 306.545 517.896 306.744 517.311 307.142C516.732 307.534 516.286 308.045 515.973 308.676C515.661 309.307 515.504 309.983 515.504 310.705V311.864C515.504 312.852 515.675 313.69 516.016 314.378C516.362 315.06 516.842 315.58 517.456 315.938C518.07 316.29 518.783 316.466 519.595 316.466C520.124 316.466 520.601 316.392 521.027 316.244C521.459 316.091 521.831 315.864 522.143 315.562C522.456 315.256 522.697 314.875 522.868 314.42L524.811 314.966C524.607 315.625 524.263 316.205 523.78 316.705C523.297 317.199 522.7 317.585 521.99 317.864C521.28 318.136 520.482 318.273 519.595 318.273ZM528.075 318V304.909H530.087V310.602H531.416L536.121 304.909H538.712L533.428 311.216L538.78 318H536.189L531.893 312.477H530.087V318H528.075ZM540.216 306.784V304.909H550.852V306.784H546.557V318H544.545V306.784H540.216ZM566.4 318.239C565.275 318.239 564.272 318.045 563.391 317.659C562.516 317.273 561.82 316.736 561.303 316.048C560.792 315.355 560.513 314.551 560.468 313.636H562.616C562.661 314.199 562.854 314.685 563.195 315.094C563.536 315.497 563.982 315.81 564.533 316.031C565.085 316.253 565.695 316.364 566.366 316.364C567.116 316.364 567.781 316.233 568.36 315.972C568.94 315.71 569.394 315.347 569.724 314.881C570.053 314.415 570.218 313.875 570.218 313.261C570.218 312.619 570.059 312.054 569.741 311.565C569.423 311.071 568.957 310.685 568.343 310.406C567.729 310.128 566.979 309.989 566.093 309.989H564.695V308.114H566.093C566.786 308.114 567.394 307.989 567.917 307.739C568.445 307.489 568.857 307.136 569.153 306.682C569.454 306.227 569.604 305.693 569.604 305.08C569.604 304.489 569.474 303.974 569.212 303.537C568.951 303.099 568.582 302.759 568.104 302.514C567.633 302.27 567.076 302.148 566.434 302.148C565.832 302.148 565.263 302.259 564.729 302.48C564.201 302.696 563.769 303.011 563.434 303.426C563.099 303.835 562.917 304.33 562.888 304.909H560.843C560.877 303.994 561.153 303.193 561.67 302.506C562.187 301.812 562.863 301.273 563.698 300.886C564.539 300.5 565.462 300.307 566.468 300.307C567.548 300.307 568.474 300.526 569.246 300.963C570.019 301.395 570.613 301.966 571.028 302.676C571.442 303.386 571.65 304.153 571.65 304.977C571.65 305.96 571.391 306.798 570.874 307.491C570.363 308.185 569.667 308.665 568.786 308.932V309.068C569.888 309.25 570.749 309.719 571.369 310.474C571.988 311.224 572.298 312.153 572.298 313.261C572.298 314.21 572.039 315.062 571.522 315.818C571.011 316.568 570.312 317.159 569.425 317.591C568.539 318.023 567.531 318.239 566.4 318.239Z" fill="black"/>
<path d="M676.17 300.545V318H674.057V302.42H665.261V318H663.148V300.545H676.17ZM680.161 322.909V304.909H682.104V306.989H682.343C682.491 306.761 682.695 306.472 682.957 306.119C683.224 305.761 683.604 305.443 684.099 305.165C684.599 304.881 685.275 304.739 686.127 304.739C687.229 304.739 688.201 305.014 689.042 305.565C689.883 306.116 690.539 306.898 691.011 307.909C691.482 308.92 691.718 310.114 691.718 311.489C691.718 312.875 691.482 314.077 691.011 315.094C690.539 316.105 689.886 316.889 689.05 317.446C688.215 317.997 687.252 318.273 686.161 318.273C685.32 318.273 684.647 318.134 684.141 317.855C683.636 317.571 683.246 317.25 682.974 316.892C682.701 316.528 682.491 316.227 682.343 315.989H682.173V322.909H680.161ZM682.138 311.455C682.138 312.443 682.283 313.315 682.573 314.071C682.863 314.821 683.286 315.409 683.843 315.835C684.4 316.256 685.082 316.466 685.888 316.466C686.729 316.466 687.431 316.244 687.994 315.801C688.562 315.352 688.988 314.75 689.272 313.994C689.562 313.233 689.707 312.386 689.707 311.455C689.707 310.534 689.565 309.705 689.281 308.966C689.002 308.222 688.579 307.634 688.011 307.202C687.448 306.764 686.741 306.545 685.888 306.545C685.07 306.545 684.383 306.753 683.826 307.168C683.269 307.577 682.849 308.151 682.565 308.889C682.281 309.622 682.138 310.477 682.138 311.455ZM700.104 318.273C698.923 318.273 697.886 317.991 696.994 317.429C696.107 316.866 695.414 316.08 694.914 315.068C694.42 314.057 694.173 312.875 694.173 311.523C694.173 310.159 694.42 308.969 694.914 307.952C695.414 306.935 696.107 306.145 696.994 305.582C697.886 305.02 698.923 304.739 700.104 304.739C701.286 304.739 702.32 305.02 703.207 305.582C704.099 306.145 704.792 306.935 705.286 307.952C705.786 308.969 706.036 310.159 706.036 311.523C706.036 312.875 705.786 314.057 705.286 315.068C704.792 316.08 704.099 316.866 703.207 317.429C702.32 317.991 701.286 318.273 700.104 318.273ZM700.104 316.466C701.002 316.466 701.741 316.236 702.32 315.776C702.9 315.315 703.329 314.71 703.607 313.96C703.886 313.21 704.025 312.398 704.025 311.523C704.025 310.648 703.886 309.832 703.607 309.077C703.329 308.321 702.9 307.71 702.32 307.244C701.741 306.778 701.002 306.545 700.104 306.545C699.207 306.545 698.468 306.778 697.888 307.244C697.309 307.71 696.88 308.321 696.602 309.077C696.323 309.832 696.184 310.648 696.184 311.523C696.184 312.398 696.323 313.21 696.602 313.96C696.88 314.71 697.309 315.315 697.888 315.776C698.468 316.236 699.207 316.466 700.104 316.466ZM714.595 318.273C713.334 318.273 712.246 317.994 711.331 317.438C710.422 316.875 709.72 316.091 709.226 315.085C708.737 314.074 708.493 312.898 708.493 311.557C708.493 310.216 708.737 309.034 709.226 308.011C709.72 306.983 710.408 306.182 711.288 305.608C712.175 305.028 713.209 304.739 714.391 304.739C715.072 304.739 715.746 304.852 716.411 305.08C717.075 305.307 717.68 305.676 718.226 306.188C718.771 306.693 719.206 307.364 719.53 308.199C719.854 309.034 720.016 310.062 720.016 311.284V312.136H709.925V310.398H717.97C717.97 309.659 717.822 309 717.527 308.42C717.237 307.841 716.822 307.384 716.283 307.048C715.749 306.713 715.118 306.545 714.391 306.545C713.589 306.545 712.896 306.744 712.311 307.142C711.732 307.534 711.286 308.045 710.973 308.676C710.661 309.307 710.504 309.983 710.504 310.705V311.864C710.504 312.852 710.675 313.69 711.016 314.378C711.362 315.06 711.842 315.58 712.456 315.938C713.07 316.29 713.783 316.466 714.595 316.466C715.124 316.466 715.601 316.392 716.027 316.244C716.459 316.091 716.831 315.864 717.143 315.562C717.456 315.256 717.697 314.875 717.868 314.42L719.811 314.966C719.607 315.625 719.263 316.205 718.78 316.705C718.297 317.199 717.7 317.585 716.99 317.864C716.28 318.136 715.482 318.273 714.595 318.273ZM723.075 318V304.909H725.087V310.602H726.416L731.121 304.909H733.712L728.428 311.216L733.78 318H731.189L726.893 312.477H725.087V318H723.075ZM735.216 306.784V304.909H745.852V306.784H741.557V318H739.545V306.784H735.216ZM755.093 314.42V312.682L762.763 300.545H764.025V303.239H763.173L757.377 312.409V312.545H767.707V314.42H755.093ZM763.309 318V313.892V313.082V300.545H765.32V318H763.309Z" fill="black"/>
<path d="M873.17 300.545V318H871.057V302.42H862.261V318H860.148V300.545H873.17ZM877.161 322.909V304.909H879.104V306.989H879.343C879.491 306.761 879.695 306.472 879.957 306.119C880.224 305.761 880.604 305.443 881.099 305.165C881.599 304.881 882.275 304.739 883.127 304.739C884.229 304.739 885.201 305.014 886.042 305.565C886.883 306.116 887.539 306.898 888.011 307.909C888.482 308.92 888.718 310.114 888.718 311.489C888.718 312.875 888.482 314.077 888.011 315.094C887.539 316.105 886.886 316.889 886.05 317.446C885.215 317.997 884.252 318.273 883.161 318.273C882.32 318.273 881.647 318.134 881.141 317.855C880.636 317.571 880.246 317.25 879.974 316.892C879.701 316.528 879.491 316.227 879.343 315.989H879.173V322.909H877.161ZM879.138 311.455C879.138 312.443 879.283 313.315 879.573 314.071C879.863 314.821 880.286 315.409 880.843 315.835C881.4 316.256 882.082 316.466 882.888 316.466C883.729 316.466 884.431 316.244 884.994 315.801C885.562 315.352 885.988 314.75 886.272 313.994C886.562 313.233 886.707 312.386 886.707 311.455C886.707 310.534 886.565 309.705 886.281 308.966C886.002 308.222 885.579 307.634 885.011 307.202C884.448 306.764 883.741 306.545 882.888 306.545C882.07 306.545 881.383 306.753 880.826 307.168C880.269 307.577 879.849 308.151 879.565 308.889C879.281 309.622 879.138 310.477 879.138 311.455ZM897.104 318.273C895.923 318.273 894.886 317.991 893.994 317.429C893.107 316.866 892.414 316.08 891.914 315.068C891.42 314.057 891.173 312.875 891.173 311.523C891.173 310.159 891.42 308.969 891.914 307.952C892.414 306.935 893.107 306.145 893.994 305.582C894.886 305.02 895.923 304.739 897.104 304.739C898.286 304.739 899.32 305.02 900.207 305.582C901.099 306.145 901.792 306.935 902.286 307.952C902.786 308.969 903.036 310.159 903.036 311.523C903.036 312.875 902.786 314.057 902.286 315.068C901.792 316.08 901.099 316.866 900.207 317.429C899.32 317.991 898.286 318.273 897.104 318.273ZM897.104 316.466C898.002 316.466 898.741 316.236 899.32 315.776C899.9 315.315 900.329 314.71 900.607 313.96C900.886 313.21 901.025 312.398 901.025 311.523C901.025 310.648 900.886 309.832 900.607 309.077C900.329 308.321 899.9 307.71 899.32 307.244C898.741 306.778 898.002 306.545 897.104 306.545C896.207 306.545 895.468 306.778 894.888 307.244C894.309 307.71 893.88 308.321 893.602 309.077C893.323 309.832 893.184 310.648 893.184 311.523C893.184 312.398 893.323 313.21 893.602 313.96C893.88 314.71 894.309 315.315 894.888 315.776C895.468 316.236 896.207 316.466 897.104 316.466ZM911.595 318.273C910.334 318.273 909.246 317.994 908.331 317.438C907.422 316.875 906.72 316.091 906.226 315.085C905.737 314.074 905.493 312.898 905.493 311.557C905.493 310.216 905.737 309.034 906.226 308.011C906.72 306.983 907.408 306.182 908.288 305.608C909.175 305.028 910.209 304.739 911.391 304.739C912.072 304.739 912.746 304.852 913.411 305.08C914.075 305.307 914.68 305.676 915.226 306.188C915.771 306.693 916.206 307.364 916.53 308.199C916.854 309.034 917.016 310.062 917.016 311.284V312.136H906.925V310.398H914.97C914.97 309.659 914.822 309 914.527 308.42C914.237 307.841 913.822 307.384 913.283 307.048C912.749 306.713 912.118 306.545 911.391 306.545C910.589 306.545 909.896 306.744 909.311 307.142C908.732 307.534 908.286 308.045 907.973 308.676C907.661 309.307 907.504 309.983 907.504 310.705V311.864C907.504 312.852 907.675 313.69 908.016 314.378C908.362 315.06 908.842 315.58 909.456 315.938C910.07 316.29 910.783 316.466 911.595 316.466C912.124 316.466 912.601 316.392 913.027 316.244C913.459 316.091 913.831 315.864 914.143 315.562C914.456 315.256 914.697 314.875 914.868 314.42L916.811 314.966C916.607 315.625 916.263 316.205 915.78 316.705C915.297 317.199 914.7 317.585 913.99 317.864C913.28 318.136 912.482 318.273 911.595 318.273ZM920.075 318V304.909H922.087V310.602H923.416L928.121 304.909H930.712L925.428 311.216L930.78 318H928.189L923.893 312.477H922.087V318H920.075ZM932.216 306.784V304.909H942.852V306.784H938.557V318H936.545V306.784H932.216ZM957.957 318.239C956.957 318.239 956.056 318.04 955.255 317.642C954.454 317.244 953.812 316.699 953.329 316.006C952.846 315.312 952.582 314.523 952.536 313.636H954.582C954.661 314.426 955.019 315.08 955.656 315.597C956.298 316.108 957.065 316.364 957.957 316.364C958.673 316.364 959.309 316.196 959.866 315.861C960.428 315.526 960.869 315.065 961.187 314.48C961.511 313.889 961.673 313.222 961.673 312.477C961.673 311.716 961.505 311.037 961.17 310.44C960.84 309.838 960.386 309.364 959.806 309.017C959.227 308.67 958.565 308.494 957.82 308.489C957.286 308.483 956.738 308.565 956.175 308.736C955.613 308.901 955.15 309.114 954.786 309.375L952.809 309.136L953.866 300.545H962.934V302.42H955.638L955.025 307.568H955.127C955.485 307.284 955.934 307.048 956.474 306.861C957.013 306.673 957.576 306.58 958.161 306.58C959.229 306.58 960.181 306.835 961.016 307.347C961.857 307.852 962.516 308.545 962.994 309.426C963.477 310.307 963.718 311.312 963.718 312.443C963.718 313.557 963.468 314.551 962.968 315.426C962.474 316.295 961.792 316.983 960.923 317.489C960.053 317.989 959.065 318.239 957.957 318.239Z" fill="black"/>
<path d="M909.5 244H910V243.5H909.5V244ZM128 244V243.5H127.5V244H128ZM127.646 279.354C127.842 279.549 128.158 279.549 128.354 279.354L131.536 276.172C131.731 275.976 131.731 275.66 131.536 275.464C131.34 275.269 131.024 275.269 130.828 275.464L128 278.293L125.172 275.464C124.976 275.269 124.66 275.269 124.464 275.464C124.269 275.66 124.269 275.976 124.464 276.172L127.646 279.354ZM909.146 279.354C909.342 279.549 909.658 279.549 909.854 279.354L913.036 276.172C913.231 275.976 913.231 275.66 913.036 275.464C912.84 275.269 912.524 275.269 912.328 275.464L909.5 278.293L906.672 275.464C906.476 275.269 906.16 275.269 905.964 275.464C905.769 275.66 905.769 275.976 905.964 276.172L909.146 279.354ZM909.5 243.5L128 243.5V244.5L909.5 244.5V243.5ZM127.5 244V279H128.5V244H127.5ZM909 244L909 279H910L910 244H909Z" fill="black"/>
<rect x="1014.5" y="152.5" width="194" height="55" rx="23.5" stroke="black"/>
<path d="M1078.84 180.273C1078.84 182.114 1078.51 183.705 1077.84 185.045C1077.18 186.386 1076.27 187.42 1075.11 188.148C1073.95 188.875 1072.63 189.239 1071.14 189.239C1069.65 189.239 1068.32 188.875 1067.16 188.148C1066.01 187.42 1065.09 186.386 1064.43 185.045C1063.76 183.705 1063.43 182.114 1063.43 180.273C1063.43 178.432 1063.76 176.841 1064.43 175.5C1065.09 174.159 1066.01 173.125 1067.16 172.398C1068.32 171.67 1069.65 171.307 1071.14 171.307C1072.63 171.307 1073.95 171.67 1075.11 172.398C1076.27 173.125 1077.18 174.159 1077.84 175.5C1078.51 176.841 1078.84 178.432 1078.84 180.273ZM1076.8 180.273C1076.8 178.761 1076.54 177.486 1076.04 176.446C1075.54 175.406 1074.86 174.619 1074 174.085C1073.15 173.551 1072.19 173.284 1071.14 173.284C1070.08 173.284 1069.12 173.551 1068.26 174.085C1067.41 174.619 1066.73 175.406 1066.23 176.446C1065.73 177.486 1065.48 178.761 1065.48 180.273C1065.48 181.784 1065.73 183.06 1066.23 184.099C1066.73 185.139 1067.41 185.926 1068.26 186.46C1069.12 186.994 1070.08 187.261 1071.14 187.261C1072.19 187.261 1073.15 186.994 1074 186.46C1074.86 185.926 1075.54 185.139 1076.04 184.099C1076.54 183.06 1076.8 181.784 1076.8 180.273ZM1091.84 171L1092.86 172.227C1092.46 172.614 1092 172.884 1091.48 173.037C1090.96 173.19 1090.37 173.284 1089.71 173.318C1089.05 173.352 1088.32 173.386 1087.51 173.42C1086.6 173.455 1085.85 173.676 1085.25 174.085C1084.65 174.494 1084.19 175.085 1083.87 175.858C1083.55 176.631 1083.34 177.58 1083.25 178.705H1083.42C1083.86 177.886 1084.47 177.284 1085.26 176.898C1086.04 176.511 1086.88 176.318 1087.78 176.318C1088.8 176.318 1089.72 176.557 1090.54 177.034C1091.36 177.511 1092.01 178.219 1092.49 179.156C1092.96 180.094 1093.2 181.25 1093.2 182.625C1093.2 183.994 1092.96 185.176 1092.47 186.17C1091.99 187.165 1091.31 187.932 1090.43 188.472C1089.56 189.006 1088.54 189.273 1087.37 189.273C1086.2 189.273 1085.18 188.997 1084.3 188.446C1083.41 187.889 1082.73 187.065 1082.24 185.974C1081.75 184.878 1081.51 183.523 1081.51 181.909V180.511C1081.51 177.597 1082 175.386 1082.99 173.881C1083.99 172.375 1085.48 171.597 1087.47 171.545C1088.18 171.523 1088.81 171.517 1089.36 171.528C1089.91 171.54 1090.39 171.514 1090.8 171.452C1091.21 171.389 1091.55 171.239 1091.84 171ZM1087.37 187.466C1088.16 187.466 1088.84 187.267 1089.41 186.869C1089.98 186.472 1090.42 185.912 1090.73 185.19C1091.04 184.463 1091.19 183.608 1091.19 182.625C1091.19 181.67 1091.03 180.858 1090.72 180.188C1090.41 179.517 1089.97 179.006 1089.4 178.653C1088.83 178.301 1088.14 178.125 1087.34 178.125C1086.75 178.125 1086.23 178.224 1085.76 178.423C1085.3 178.622 1084.9 178.915 1084.57 179.301C1084.24 179.687 1083.98 180.159 1083.8 180.716C1083.62 181.273 1083.53 181.909 1083.52 182.625C1083.52 184.091 1083.86 185.264 1084.55 186.145C1085.24 187.026 1086.18 187.466 1087.37 187.466ZM1101.6 189.273C1100.41 189.273 1099.38 188.991 1098.49 188.429C1097.6 187.866 1096.91 187.08 1096.41 186.068C1095.91 185.057 1095.66 183.875 1095.66 182.523C1095.66 181.159 1095.91 179.969 1096.41 178.952C1096.91 177.935 1097.6 177.145 1098.49 176.582C1099.38 176.02 1100.41 175.739 1101.6 175.739C1102.78 175.739 1103.81 176.02 1104.7 176.582C1105.59 177.145 1106.28 177.935 1106.78 178.952C1107.28 179.969 1107.53 181.159 1107.53 182.523C1107.53 183.875 1107.28 185.057 1106.78 186.068C1106.28 187.08 1105.59 187.866 1104.7 188.429C1103.81 188.991 1102.78 189.273 1101.6 189.273ZM1101.6 187.466C1102.49 187.466 1103.23 187.236 1103.81 186.776C1104.39 186.315 1104.82 185.71 1105.1 184.96C1105.38 184.21 1105.52 183.398 1105.52 182.523C1105.52 181.648 1105.38 180.832 1105.1 180.077C1104.82 179.321 1104.39 178.71 1103.81 178.244C1103.23 177.778 1102.49 177.545 1101.6 177.545C1100.7 177.545 1099.96 177.778 1099.38 178.244C1098.8 178.71 1098.37 179.321 1098.09 180.077C1097.82 180.832 1097.68 181.648 1097.68 182.523C1097.68 183.398 1097.82 184.21 1098.09 184.96C1098.37 185.71 1098.8 186.315 1099.38 186.776C1099.96 187.236 1100.7 187.466 1101.6 187.466ZM1124.51 186.273L1129.08 175.909H1130.99L1125.33 189H1123.69L1118.13 175.909H1120.01L1124.51 186.273ZM1119.36 175.909V189H1117.35V175.909H1119.36ZM1129.66 189V175.909H1131.67V189H1129.66ZM1144.11 181.534V183.409H1136.88V181.534H1144.11ZM1137.36 175.909V189H1135.35V175.909H1137.36ZM1145.64 175.909V189H1143.63V175.909H1145.64ZM1154.81 189.273C1153.54 189.273 1152.46 188.994 1151.54 188.438C1150.63 187.875 1149.93 187.091 1149.44 186.085C1148.95 185.074 1148.7 183.898 1148.7 182.557C1148.7 181.216 1148.95 180.034 1149.44 179.011C1149.93 177.983 1150.62 177.182 1151.5 176.608C1152.39 176.028 1153.42 175.739 1154.6 175.739C1155.28 175.739 1155.96 175.852 1156.62 176.08C1157.29 176.307 1157.89 176.676 1158.44 177.188C1158.98 177.693 1159.42 178.364 1159.74 179.199C1160.06 180.034 1160.23 181.062 1160.23 182.284V183.136H1150.14V181.398H1158.18C1158.18 180.659 1158.03 180 1157.74 179.42C1157.45 178.841 1157.03 178.384 1156.49 178.048C1155.96 177.713 1155.33 177.545 1154.6 177.545C1153.8 177.545 1153.11 177.744 1152.52 178.142C1151.94 178.534 1151.5 179.045 1151.18 179.676C1150.87 180.307 1150.72 180.983 1150.72 181.705V182.864C1150.72 183.852 1150.89 184.69 1151.23 185.378C1151.57 186.06 1152.05 186.58 1152.67 186.938C1153.28 187.29 1153.99 187.466 1154.81 187.466C1155.33 187.466 1155.81 187.392 1156.24 187.244C1156.67 187.091 1157.04 186.864 1157.35 186.562C1157.67 186.256 1157.91 185.875 1158.08 185.42L1160.02 185.966C1159.82 186.625 1159.47 187.205 1158.99 187.705C1158.51 188.199 1157.91 188.585 1157.2 188.864C1156.49 189.136 1155.69 189.273 1154.81 189.273Z" fill="black"/>
<path d="M519.66 147.366C519.862 147.554 520.178 147.543 520.366 147.34L523.428 144.043C523.616 143.84 523.605 143.524 523.402 143.336C523.2 143.148 522.884 143.16 522.696 143.362L519.974 146.293L517.043 143.572C516.84 143.384 516.524 143.395 516.336 143.598C516.148 143.8 516.16 144.116 516.362 144.304L519.66 147.366ZM518.5 120.019L519.5 147.019L520.5 146.981L519.5 119.981L518.5 120.019Z" fill="black"/>
<path d="M1115 84H1115.5V83.5H1115V84ZM1114.65 151.354C1114.84 151.549 1115.16 151.549 1115.35 151.354L1118.54 148.172C1118.73 147.976 1118.73 147.66 1118.54 147.464C1118.34 147.269 1118.02 147.269 1117.83 147.464L1115 150.293L1112.17 147.464C1111.98 147.269 1111.66 147.269 1111.46 147.464C1111.27 147.66 1111.27 147.976 1111.46 148.172L1114.65 151.354ZM626 84.5H1115V83.5H626V84.5ZM1114.5 84V151H1115.5V84H1114.5Z" fill="black"/>
<path d="M323.646 278.854C323.842 279.049 324.158 279.049 324.354 278.854L327.536 275.672C327.731 275.476 327.731 275.16 327.536 274.964C327.34 274.769 327.024 274.769 326.828 274.964L324 277.793L321.172 274.964C320.976 274.769 320.66 274.769 320.464 274.964C320.269 275.16 320.269 275.476 320.464 275.672L323.646 278.854ZM323.5 245V278.5H324.5V245H323.5Z" fill="black"/>
<path d="M519.646 278.854C519.842 279.049 520.158 279.049 520.354 278.854L523.536 275.672C523.731 275.476 523.731 275.16 523.536 274.964C523.34 274.769 523.024 274.769 522.828 274.964L520 277.793L517.172 274.964C516.976 274.769 516.66 274.769 516.464 274.964C516.269 275.16 516.269 275.476 516.464 275.672L519.646 278.854ZM519.5 245V278.5H520.5V245H519.5Z" fill="black"/>
<path d="M715.646 277.854C715.842 278.049 716.158 278.049 716.354 277.854L719.536 274.672C719.731 274.476 719.731 274.16 719.536 273.964C719.34 273.769 719.024 273.769 718.828 273.964L716 276.793L713.172 273.964C712.976 273.769 712.66 273.769 712.464 273.964C712.269 274.16 712.269 274.476 712.464 274.672L715.646 277.854ZM715.5 244V277.5H716.5V244H715.5Z" fill="black"/>
<path d="M520 210V243.5" stroke="black"/>
</svg>
